<svg width="20" height="20" viewBox="0 0 20 20" fill="none" xmlns="http://www.w3.org/2000/svg">
<g clip-path="url(#clip0_7_31)">
<path d="M16.9771 2.32548H13.2563V4.18587H16.0469V18.1392H3.95395V4.18587H6.74453V2.32548H3.02333C2.50973 2.32548 2.09314 2.74207 2.09314 3.2561V19.0698C2.09314 19.5834 2.50973 20.0004 3.02333 20.0004H16.9767C17.4903 20.0004 17.9073 19.5838 17.9073 19.0698V3.25567C17.9068 2.74207 17.4907 2.32548 16.9771 2.32548Z" fill="white"/>
<path d="M7.88152 5.96796C7.91471 5.99051 8.71129 6.51135 10.0002 6.51135C11.2891 6.51135 12.0853 5.99009 12.1189 5.96796C12.2487 5.882 12.3257 5.73647 12.3257 5.58116V0.465097C12.3257 0.208081 12.118 0 11.8606 0H8.13981C7.88279 0 7.67471 0.208081 7.67471 0.465097V5.58116C7.67471 5.73647 7.75258 5.882 7.88152 5.96796ZM8.60491 0.930619H11.3955V5.30116C11.1385 5.41563 10.6547 5.58116 10.0006 5.58116C9.3483 5.58116 8.86235 5.41478 8.60533 5.29989L8.60491 0.930619Z" fill="white"/>
<path d="M7.58493 15.015C6.55686 15.3507 5.63177 15.4107 5.63177 16.7711C5.63177 17.0498 7.04962 17.3167 9.39042 17.3571L9.68658 15.4486L9.53722 15.209C9.51595 15.1754 9.51978 15.132 9.54616 15.1031L9.93551 14.6822C9.96913 14.6473 10.03 14.6473 10.0636 14.6822L10.4534 15.1031C10.4798 15.132 10.4832 15.1754 10.4623 15.209L10.313 15.4486L10.6091 17.3567C12.9503 17.3167 14.3682 17.0498 14.3682 16.7711C14.3682 15.4107 13.4427 15.3507 12.4146 15.015C11.781 14.809 10.9959 14.692 11.1636 13.6014C11.581 13.2201 11.727 12.4342 11.727 12.4342C11.727 12.4342 12.2823 12.1542 12.3452 11.6176C12.3925 11.2087 12.1789 11.0198 12.1789 11.0198C12.1789 11.0198 12.1789 10.9904 12.1789 10.4998C12.1789 9.34576 11.1904 8.43557 9.99934 8.43557C8.8083 8.43557 7.81981 9.34576 7.81981 10.4998C7.81981 10.9896 7.81981 11.0198 7.81981 11.0198C7.81981 11.0198 7.6062 11.2087 7.65343 11.6176C7.71684 12.1542 8.27172 12.4342 8.27172 12.4342C8.27172 12.4342 8.41767 13.2206 8.83511 13.6014C9.00362 14.692 8.21853 14.809 7.58493 15.015Z" fill="white"/>
<path d="M10.0002 2.60165C10.4096 2.60165 10.7415 2.26977 10.7415 1.86039C10.7415 1.451 10.4096 1.11913 10.0002 1.11913C9.59081 1.11913 9.25894 1.451 9.25894 1.86039C9.25894 2.26977 9.59081 2.60165 10.0002 2.60165Z" fill="white"/>
</g>
<defs>
<clipPath id="clip0_7_31">
<rect width="20" height="20" fill="white"/>
</clipPath>
</defs>
</svg>
