<svg width="20" height="20" viewBox="0 0 24 24" fill="none" xmlns="http://www.w3.org/2000/svg">
<g clip-path="url(#clip0_6_2)">
<path d="M10.0758 6.32717H22.4529C23.3073 6.32717 24 5.63446 24 4.78003C24 3.9256 23.3073 3.23289 22.4529 3.23289H10.0758C9.22134 3.23289 8.52863 3.9256 8.52863 4.78003C8.52863 5.63446 9.22123 6.32717 10.0758 6.32717Z" fill="white"/>
<path d="M22.4529 10.4529H10.0758C9.22134 10.4529 8.52863 11.1456 8.52863 12C8.52863 12.8544 9.22134 13.5471 10.0758 13.5471H22.4529C23.3073 13.5471 24 12.8544 24 12C24 11.1456 23.3073 10.4529 22.4529 10.4529Z" fill="white"/>
<path d="M22.4529 17.6728H10.0758C9.22134 17.6728 8.52863 18.3655 8.52863 19.22C8.52863 20.0744 9.22134 20.7671 10.0758 20.7671H22.4529C23.3073 20.7671 24 20.0744 24 19.22C24 18.3655 23.3073 17.6728 22.4529 17.6728Z" fill="white"/>
<path d="M5.0318 10.7689L4.00151 10.6191L3.54077 9.68548C3.4104 9.42144 3.14161 9.25424 2.84704 9.25424C2.55267 9.25424 2.28367 9.42144 2.1533 9.68548L1.69246 10.6191L0.662274 10.7689C0.370897 10.8112 0.128719 11.0153 0.037747 11.2953C-0.0532246 11.5754 0.0226882 11.8827 0.233408 12.0883L0.978922 12.8149L0.802857 13.8411C0.75304 14.1313 0.872375 14.4247 1.11053 14.5977C1.24534 14.6957 1.4048 14.7455 1.56529 14.7455C1.68834 14.7455 1.812 14.7161 1.92515 14.6567L2.84683 14.1722L3.76851 14.6567C3.88176 14.7163 4.00533 14.7455 4.12837 14.7455C4.1291 14.7455 4.12992 14.7455 4.13054 14.7455C4.55776 14.7454 4.90401 14.3992 4.90401 13.972C4.90401 13.9071 4.89606 13.844 4.88101 13.7837L4.71474 12.8149L5.46025 12.0883C5.67118 11.8827 5.74699 11.5754 5.65602 11.2953C5.56536 11.0153 5.32318 10.8112 5.0318 10.7689Z" fill="white"/>
<path d="M5.0318 3.54892L4.00151 3.39915L3.54077 2.46551C3.4104 2.20147 3.14161 2.03427 2.84704 2.03427C2.55267 2.03427 2.28367 2.20147 2.1533 2.46551L1.69246 3.39915L0.662274 3.54892C0.370897 3.59121 0.128719 3.79532 0.037747 4.07536C-0.0532246 4.35539 0.0226882 4.66275 0.233408 4.86832L0.978922 5.59495L0.802857 6.62112C0.75304 6.91136 0.872375 7.2047 1.11053 7.37777C1.24534 7.47576 1.4048 7.52557 1.56529 7.52557C1.68834 7.52557 1.812 7.49618 1.92515 7.43677L2.84683 6.9522L3.76851 7.43677C3.88176 7.49628 4.00533 7.52557 4.12837 7.52557C4.1291 7.52557 4.12992 7.52557 4.13054 7.52557C4.55776 7.52557 4.90401 7.17922 4.90401 6.752C4.90401 6.68713 4.89606 6.62401 4.88101 6.56377L4.71474 5.59495L5.46025 4.86832C5.67118 4.66275 5.74699 4.35539 5.65602 4.07536C5.56536 3.79532 5.32318 3.59121 5.0318 3.54892Z" fill="white"/>
<path d="M5.0318 17.9889L4.00151 17.8391L3.54077 16.9055C3.4104 16.6414 3.14161 16.4742 2.84704 16.4742C2.55267 16.4742 2.28367 16.6414 2.1533 16.9055L1.69246 17.8391L0.662274 17.9889C0.370897 18.0311 0.128719 18.2353 0.037747 18.5153C-0.0532246 18.7953 0.0226882 19.1027 0.233408 19.3083L0.978922 20.0349L0.802857 21.0611C0.75304 21.3513 0.872375 21.6446 1.11053 21.8177C1.24534 21.9157 1.4048 21.9655 1.56529 21.9655C1.68834 21.9655 1.812 21.9361 1.92515 21.8767L2.84683 21.3921L3.76851 21.8767C3.88176 21.9362 4.00533 21.9655 4.12837 21.9655C4.1291 21.9655 4.12992 21.9655 4.13054 21.9655C4.55776 21.9654 4.90401 21.6192 4.90401 21.1919C4.90401 21.1271 4.89606 21.0639 4.88101 21.0037L4.71474 20.0349L5.46025 19.3083C5.67118 19.1027 5.74699 18.7953 5.65602 18.5153C5.56536 18.2353 5.32318 18.0311 5.0318 17.9889Z" fill="white"/>
</g>
<defs>
<clipPath id="clip0_6_2">
<rect width="24" height="24" fill="white"/>
</clipPath>
</defs>
</svg>
